<svg version="1.1" id="Layer_1" xmlns="http://www.w3.org/2000/svg" xmlns:xlink="http://www.w3.org/1999/xlink" x="0px" y="0px"
	 width="100%" viewBox="0 0 1024 1024" enable-background="new 0 0 1024 1024" xml:space="preserve">
<path fill="#000000" opacity="1.000000" stroke="none" 
	d="
M508.278076,409.230957 
	C483.689392,449.008606 462.190582,489.946838 445.180420,533.179199 
	C442.438477,540.148071 439.292511,546.959717 436.250885,553.807434 
	C435.686188,555.078796 435.496948,556.792175 433.302063,557.224548 
	C432.161896,554.437622 433.657532,551.752380 433.720428,549.093750 
	C434.000854,537.245789 433.322418,525.482361 431.556183,513.766968 
	C429.527863,500.313263 430.274658,486.795380 431.876251,473.434998 
	C435.708038,441.470490 445.940216,411.563477 462.521820,383.905640 
	C464.746399,380.195068 467.231110,376.639343 469.639893,373.041718 
	C469.984192,372.527496 470.581451,372.182617 472.167877,370.784180 
	C472.387726,385.133179 472.259674,398.549683 476.559387,411.061493 
	C477.447693,396.644165 478.587555,381.896118 480.820618,367.282501 
	C482.342773,357.321167 486.050781,348.061920 491.413788,339.458771 
	C504.113953,319.085785 519.442566,300.977600 537.674194,285.350220 
	C539.138489,284.095032 540.482422,282.503357 543.300110,282.181305 
	C542.813721,290.432770 540.888977,298.612213 543.364868,306.891449 
	C545.448975,306.124268 545.241760,304.431213 545.496948,303.137909 
	C550.605957,277.243805 564.301453,257.501038 587.693420,244.981674 
	C610.385315,232.836960 634.139221,223.301788 659.238403,217.331985 
	C667.517029,215.362930 671.313721,218.407593 671.305847,226.791229 
	C671.280884,253.337219 667.167603,279.248138 657.656311,304.024353 
	C648.397766,328.142120 631.055237,344.257019 606.323669,352.193481 
	C605.214478,352.549408 604.103088,352.903107 603.013611,353.313354 
	C602.575806,353.478180 602.194458,353.792847 601.413757,354.265625 
	C606.581299,356.566315 611.461304,354.935272 616.164917,354.227600 
	C622.072083,353.338776 627.906677,351.840424 633.534058,349.688629 
	C635.174377,349.061401 637.053223,347.697937 638.614380,349.439819 
	C640.193665,351.201843 639.233398,353.293091 638.314087,355.052612 
	C635.616028,360.216583 632.899963,365.377808 629.981934,370.419098 
	C618.954407,389.470581 607.258362,408.068970 592.787231,424.772003 
	C577.401306,442.530823 558.216858,453.724091 535.059204,458.297424 
	C541.541016,460.334320 548.056763,459.984314 554.510315,459.128418 
	C560.856079,458.286774 567.137451,456.959412 573.627075,455.813416 
	C574.934509,459.289490 572.730591,461.247040 571.225830,463.217194 
	C562.795776,474.254761 552.789917,483.770081 542.468140,493.012512 
	C523.286743,510.188171 502.174469,524.697571 480.669891,538.730103 
	C471.329468,544.825073 464.188293,552.914062 459.278931,563.228455 
	C451.251312,580.094299 443.408661,596.996582 438.189514,614.977417 
	C436.211182,621.793030 436.900482,622.593628 443.896118,622.624512 
	C456.561829,622.680542 469.227875,622.661804 481.893768,622.678711 
	C489.978485,622.689453 494.547211,626.901550 494.833069,634.597168 
	C495.084778,641.371948 490.450348,646.162842 482.845825,646.286377 
	C478.778778,646.352478 478.034241,648.308350 478.358429,651.623413 
	C479.577606,664.089539 484.700378,674.567017 494.084900,682.962158 
	C499.831055,688.102539 506.752167,691.573120 512.715332,696.402039 
	C539.963623,718.466736 534.623413,758.924805 502.655365,772.338379 
	C497.685425,774.423706 492.519684,775.386414 487.089447,775.376038 
	C452.424805,775.309753 417.759857,775.399902 383.095245,775.322937 
	C350.874359,775.251343 330.107819,742.214417 343.758453,712.984375 
	C348.153839,703.572510 355.128998,696.717590 363.895233,691.409729 
	C376.570557,683.734924 386.369385,673.700806 389.964691,658.755066 
	C390.313171,657.306335 390.561157,655.829590 390.782562,654.354797 
	C391.875275,647.075928 391.540558,646.671509 384.330566,646.369507 
	C377.577301,646.086609 373.700317,641.791077 373.672913,634.561096 
	C373.645660,627.374268 377.471710,622.884277 384.314209,622.747986 
	C394.643005,622.542236 404.982452,622.508362 415.309540,622.744202 
	C420.054199,622.852539 422.249512,621.659851 423.151123,616.398254 
	C428.191803,586.983521 438.944977,559.457031 451.208710,532.370422 
	C466.953827,497.594666 483.681335,463.345062 502.559052,430.157104 
	C526.778503,387.578064 555.258179,348.041229 587.397644,311.105621 
	C589.908508,308.220032 592.172119,305.118103 594.518738,302.091980 
	C594.874756,301.632843 595.056396,301.038513 594.883179,300.207825 
	C562.197571,333.384827 532.624084,368.994476 508.278076,409.230957 
M610.695068,330.312683 
	C611.148987,330.113159 611.646667,329.977661 612.049072,329.702820 
	C613.624084,328.627106 615.462952,326.894745 613.840027,325.348114 
	C611.024353,322.664795 607.659241,324.049164 604.730530,325.777954 
	C603.062622,326.762573 601.906616,328.236145 603.195374,330.302856 
	C603.858765,331.366852 605.014221,331.829773 606.209900,331.642975 
	C607.497803,331.441772 608.740051,330.948029 610.695068,330.312683 
z"/>
</svg>